<?xml version="1.0" encoding="UTF-8"?><svg id="Calque_1" xmlns="http://www.w3.org/2000/svg" viewBox="0 0 500 500"><defs><style>.cls-1{fill:#0066c6;}</style></defs><path class="cls-1" d="M154.933118638162341,31.783062598751712c30.497711738091311,13.129748356659547,51.16410030179577,42.40040692249022,60.930509803381938,73.340141440319712,6.048359160442487,18.111395381089096,10.005590250017121,38.381306631345069,5.638280021274113,57.324943463578165-3.649213524571678,15.25018587735758-14.793674750311766,26.890938545373501-24.660624110387289,38.52895501540479-18.535093743086691,20.58348667372411-26.870642675787167,50.566078078672945-17.411981713181376,77.108343531750506,17.576020239002901,54.672968986313208,92.882955895505802,68.186478850991989,128.365388643296683,23.188433256967983,17.329437394924753-21.518291614826012,21.801710672225454-52.964188389720221,9.910555634647608-78.047687054748167-6.036591771706298-14.158724547040038-19.300152424555563-24.828196837352152-28.173174725001445-37.051762951199635-14.986828547393088-23.063011355199706-15.416559960423911-54.464932971515736-9.896977514654282-80.579299740436909,19.708225989641505-84.960375257702253,126.192490726340111-109.115107793068091,187.122224998533056-51.05321720944994,32.989964738626441,31.448125290167809,40.551177236668082,84.381124347946752,19.84795009969821,124.614501984933668-6.834460440200928,15.282006440524128-19.374812742556969,26.568145534845826-30.104838702594861,38.891825044021971-11.420771151257213,14.031550975223581-4.448930612314143,31.611005521341212.248416817412362,46.711669320318833,3.243951149132045,11.787435129015648,6.319560505151458,23.561156396834122,9.877980888071761,35.271898672406678,8.595489923223795,29.248147919111943,17.006081387022277,58.242813421100436,25.274968866891868,87.511360129939931,3.626762778098055,13.301324481581105,9.142672483714705,26.087390589840652,7.926424919533019,40.086768541725178-1.393584557379654,21.005963419360342-17.048598306711938,40.927535523276674-37.414341990057437,46.923673522616809-38.773295114115172,5.25308651496016-78.880160807058928,1.446289865081781-118.058370037117129,2.186681054656219-9.797903923717968.006687182387395-19.945046344677394-.416203344990208-28.941699212147796-4.723822563850263-20.920948625534947-9.227720219743787-34.557638540769403-34.030056669422265-30.534464805125026-56.688413120065889,1.405747780234378-7.740675138942606,5.157021566519688-15.465871013948345,12.710502627953247-18.083677014590648,8.016691298260412-2.945166440891626,17.664327903548838,2.170394655469863,19.835754560481291,10.396960800579109,2.024723797672777,6.717706382813049-.340862992961775,14.385279499154422,1.722651956144546,21.212780719870352,2.450375804728537,7.992446582313278,10.627728714462137,15.267857854996691,19.036119544776739,14.716842675792577,22.183040870464538-1.216249612865795,95.215299904204585,2.235395827199682,115.268153286593588-1.305475946312072,11.075285137718311-4.919296538988419,14.871661984121602-18.449284227361204,10.976686288551718-29.72170081720833-10.581631287786877-37.395706505980343-21.852753613347886-74.902208281857384-32.401112862840819-112.352914748962576-6.895504658510617-29.033052260798286-24.140141512763876-59.830353219662356-10.256888348434586-89.280064331347603,5.764264785058913-13.921416795707046,17.780179147717718-23.455254237887857,27.234699874294165-34.773090709426469,16.527016213040042-20.755032498866058,20.003869944965118-50.402241466073974,9.632372229236353-74.72653919323966-18.111615299589175-45.043387662328314-81.612613442341171-58.649203785549616-119.204657196965854-30.074320178006019-25.845061675092438,19.338815148374124-35.49164634058252,56.242905042716302-26.474090307194274,86.574249833740396,3.53930463623692,12.383917490107706,14.353893756211619,20.243607850447006,22.125556726576178,29.877588143386674,47.211078201327837,58.649933931914347,17.516915372209041,149.823468575128572-54.878421135377721,170.093569320632014-72.779269249185745,20.794869963219753-144.031593965826687-37.468462442935561-137.91224159842568-113.007143649425416,1.984786559864006-27.979745433329299,16.986400904046604-52.480010753473834,35.458219794854813-73.014933414337065,10.974558826470457-11.476715077413246,14.440324578652508-23.654381043663307,10.730679659674934-39.171178518181478-3.917607699557266-19.551765012591204-11.53946929819358-39.598821090592537-25.152821339819639-54.564448039382114-25.313812960019277-27.385987906556693-70.402212347844397-28.280366564649739-99.183235476248228-5.737380532264069-29.756867176402011,21.391830746877531-36.733407033359981,64.867215929927625-18.577383248644765,95.823970564089905,11.693546107999282,18.535784332412732,31.066220972956216,30.251444754729164,36.154166079228162,53.130842068865604,4.505705567813493,16.013726627379583-.08367533281853,32.36782662679434-4.64424571175914,47.813054636621018-4.876086039403162,16.636985386932793-9.692518084484618,33.111280166493088-14.441804389993194,49.781621346402972-6.011700352311891,19.100453014812956-10.631379044927598,38.507928955565148-16.805407287371054,57.541718376161953-3.691294026277319,15.685387575183995-10.311935597776028,30.449714945192682-11.657482808885106,46.445905771281105-.361456681515847,10.571474495271104,9.335366507242725,21.417748503212351,19.763833544508088,20.647252830698562,21.186844479154388-.84186810679239,82.050571475218021,1.490759831584,113.857921284597978-.794012234240654,7.315396494101151-2.729567934882652,13.801395080605289-10.896114231880347,13.913576845436182-19.382099554000888-.445254707701679-9.894673843824421-.557605908878031-22.92407126663602,11.122647148811666-26.204763802554226,25.365869314135125-5.283736079494702,26.579964370053858,31.329063898607274,18.306294060357686,47.357866542275588-6.668062823860964,16.279782564490233-21.619344844593797,28.000022842805265-38.864976070983175,31.801131181005985-7.624592931810184,1.120970067131566-13.934157606454391.327119216781284-23.071473405674624.550787309577572-32.497060560914178-.123846474016318-86.249469669939572.157643089078192-102.172688205126178-.071646194577625-4.252504818985472-.345965196975158-7.298407952694106-1.255475330348418-12.224998646612221-3.133244688673585C15.095093593579804,466.264988454582635.339010503437748,446.493875417150775.044390755148925,425.265331625441831c-.452683599003649-10.260639857318893,2.638482251226378-19.30311087143491,5.55119514650869-29.029241930511489,3.609291004402621-11.841306655827793,6.52587741100433-23.990145694915554,10.127996586590598-35.835695207149911,8.156469096395085-28.398206633188238,16.878164574505718-56.463313810025284,24.482093157233976-84.920937771166791,3.283404847847123-13.920708791767538,10.504228833196976-27.949347066954942,9.365480206120992-42.501011181582726-1.324284469577833-11.558858671820417-10.298417839025205-20.03714264627888-18.068142386386171-27.932265438494142C13.430391910351318,186.065888370258108,3.033778652683395,160.432648080330182,1.793578847307799,134.318830550088023-1.781415565445059,55.239490702933836,83.458397810898532-.012595989674082,154.804909403823331,31.725762815349299l.12820923433901.057299783402414Z"/></svg>