<?xml version="1.0" encoding="UTF-8"?><svg id="Calque_1" xmlns="http://www.w3.org/2000/svg" viewBox="0 0 249.999999999998181 227.386548760317964"><path d="M77.466559319080261,4.584805679536657c15.248855869049294,6.564874178328864,25.582050150900614,21.2002034612442,30.465254901690059,36.670070720159856,3.024179580221244,9.055697690543639,5.002795125012199,19.190653315672535,2.819140010638876,28.662471731788173-1.82460676228402,7.625092938677881-7.396837375157702,13.445469272685841-12.330312055191825,19.264477507701486-9.267546871544255,10.291743336862055-13.435321337896312,25.283039039335563-8.705990856593417,38.554171765873434,8.78801011950236,27.336484493158423,46.441477947751991,34.093239425495995,64.182694321647432,11.59421662848581,8.664718697462376-10.759145807414825,10.900855336112727-26.482094194861929,4.955277817323804-39.023843527374083-3.01829588585133-7.079362273520019-9.650076212277781-12.414098418676986-14.086587362498904-18.525881475599817-7.493414273696544-11.531505677599853-7.708279980213774-27.232466485756959-4.948488757327141-40.289649870217545C149.671660333588079-.989348468497155,202.913792701936472-13.066714736179165,233.378659838033855,15.964230555628092c16.49498236931322,15.724062645085723,20.275588618333131,42.190562173974286,9.923975049849105,62.307250992465924-3.417230220102283,7.641003220262064-9.687406371280304,13.284072767424732-15.052419351297431,19.445912522011895-5.710385575628607,7.015775487611791-2.224465306158891,15.805502760670606.124208408706181,23.355834660157598,1.621975574564203,5.893717564509643,3.15978025257391,11.780578198417061,4.938990444035881,17.635949336205158,4.297744961611897,14.624073959555972,8.503040693511139,29.121406710550218,12.637484433445934,43.755680064969056,1.813381389049027,6.650662240790552,4.571336241855533,13.043695294918507,3.96321245976651,20.04338427086077-.696792278691646,10.502981709680171-8.524299153355969,20.463767761639247-18.707170995030538,23.461836761307495-19.386647557055767,2.62654325748008-39.440080403528555.72314493254089-59.029185018556745,1.093340527329929-4.898951961857165.003343591193698-9.972523172338697-.208101672496923-14.470849606072079-2.36191128192695-10.460474312767474-4.613860109870075-17.278819270384702-17.015028334710223-15.267232402564332-28.344206560030216.702873890119008-3.870337569473122,2.578510783261663-7.732935506974172,6.355251313976623-9.041838507297143,4.008345649130206-1.472583220443994,8.832163951776238,1.085197327736751,9.917877280242465,5.198480400289554,1.012361898836389,3.358853191408343-.170431496482706,7.192639749577211.861325978070454,10.606390359935176,1.225187902366088,3.996223291156639,5.313864357231068,7.633928927500165,9.518059772390188,7.358421337896289,11.091520435231359-.608124806432897,47.607649952098654,1.11769791360166,57.634076643293156-.652737973156036,5.537642568860974-2.45964826949421,7.43583099206262-9.224642113680602,5.488343144275859-14.860850408602346-5.290815643893438-18.69785325299199-10.926376806672124-37.451104140929601-16.200556431420409-56.176457374480378-3.447752329255309-14.516526130400962-12.070070756379209-29.915176609832088-5.128444174217293-44.640032165672892,2.882132392529456-6.960708397854432,8.890089573858859-11.727627118945747,13.617349937147083-17.386545354714144,8.263508106520021-10.377516249433938,10.001934972484378-25.201120733036078,4.816186114619995-37.363269596618011-9.055807649796407-22.521693831164157-40.806306721171495-29.324601892775718-59.602328598481108-15.037160089004828-12.922530837546219,9.669407574188881-17.74582317029126,28.121452521358151-13.237045153598956,43.287124916869288,1.76965231811846,6.191958745055672,7.176946878107628,10.121803925225322,11.062778363289908,14.938794071694247,23.605539100663009,29.324966965956264,8.758457686102702,74.911734287562467-27.439210567690679,85.046784660314188-36.389634624592873,10.397434981610786-72.015796982912434-18.73423122146778-68.956120799211931-56.503571824712708.992393279932003-13.98987271666283,8.49320045202694-26.240005376735098,17.729109897427406-36.507466707165804,5.487279413235228-5.738357538707533,7.220162289326254-11.827190521831653,5.365339829837467-19.585589259090739-1.958803849778633-9.775882506296512-5.76973464909679-19.799410545297178-12.576410669909819-27.282224019690148-12.656906480006-13.692993953278346-35.201106173921289-14.14018328232487-49.591617738122295-2.868690266132944-14.878433588197367,10.695915373439675-18.366703516679991,32.433607964963812-9.288691624320563,47.911985282044043,5.846773053999641,9.267892166205456,15.533110486478108,15.125722377364582,18.077083039612262,26.565421034432802,2.252852783905837,8.006863313688882-.041837666409265,16.18391331339717-2.322122855877751,23.906527318310509-2.4380430197034,8.318492693464577-4.846259042242309,16.555640083244725-7.220902194996597,24.890810673199667-3.005850176155946,9.550226507406478-5.31568952246198,19.253964477782574-8.402703643683708,28.770859188081886-1.845647013142298,7.842693787590179-5.155967798889833,15.224857472596341-5.828741404444372,23.222952885640552-.180728340756104,5.285737247633733,4.667683253619543,10.708874251606176,9.881916772255863,10.323626415349281,10.593422239575375-.420934053396195,41.025285737603554.745379915792,56.928960642293532-.397006117120327,3.657698247050575-1.364783967443145,6.900697540306282-5.448057115940173,6.956788422718091-9.691049777002263-.22262735384902-4.947336921912211-.278802954435378-11.46203563331801,5.561323574409471-13.102381901277113,12.682934657063015-2.641868039745532,13.289982185022382,15.664531949305456,9.153147030176115,23.678933271137794-3.334031411932301,8.139891282244207-10.809672422297808,14.000011421401723-19.432488035492497,15.900565590503902-3.812296465901454.560485033563964-6.967078803223558.163559608388823-11.535736702835493.275393654788786-16.248530280457999-.061923237008159-43.124734834969786.078821544539096-51.086344102559451-.035823097290631-2.126252409496374-.17298259848576-3.649203976348872-.62773766517239-6.112499323309748-1.566622344334974C7.547546796795359,221.825768607448481.169505251722512,211.940212088731641.022195377576281,201.325940192878988c-.226341799501824-5.130319928661265,1.319241125613189-9.651555435717455,2.775597573254345-14.514620965257564,1.80464550220313-5.920653327913897,3.262938705502165-11.995072847457777,5.063998293298937-17.917847603574046,4.078234548192995-14.199103316594119,8.439082287248311-28.231656905012642,12.241046578616078-42.460468885581577,1.641702423919924-6.960354395883769,5.252114416598488-13.97467353347929,4.682740103060496-21.250505590792272-.662142234792555-5.779429335909299-5.149208919512603-10.018571323137621-9.034071193196723-13.966132719245252C6.715195955177478,81.726218565288946,1.516889326345336,68.909598420324983.896789423655719,55.852689655203903-.89070778272071,16.313019731627719,41.729198905453813-11.313023614677149,77.402454701914394,4.556155787835451l.064104617165867.028649891701207Z"/></svg>